
<svg xmlns="http://www.w3.org/2000/svg" version="1.1" xmlns:xlink="http://www.w3.org/1999/xlink" preserveAspectRatio="none" x="0px" y="0px" width="500px" height="300px" viewBox="0 0 500 300">
<defs>
<path id="Layer0_0_1_STROKES" stroke="#000000" stroke-width="1.5" stroke-linejoin="round" stroke-linecap="round" fill="none" d="
M 49.95 168.85
Q 52.1654296875 168.94296875 54.225 169.3 61.8125 169.7759765625 57.25 166.2
L 77.25 174.4 74.65 164.5
Q 82.7275390625 177.4802734375 89.85 174.8 97.7923828125 167.0662109375 91.9 153.35
L 70.3 119.2 46.25 107.55 30.15 98.05 44.05 100.8 21.4 74.1 26.25 71.55 20.2 58.45 26.15 58.45 28.7 52.55 30.8 75.35 48.05 97.1 63.05 111.95 72.75 111.95 54.85 85.45 44.25 63.05 56.55 77.8 59.5 65.45 52.75 44.75 60.05 54.3 64.05 41.1 64.05 48.95 69.6 43.7 62.65 68.2 64.75 89.15 72.4 80.4 76.4 46.65 76.4 62.65 84.1 52.75 75.7 83.35 85.15 117.1 85.15 80.4
Q 90.41015625 93.91328125 105.55 61.5 99.116015625 82.72734375 112.65 72.05
L 97.85 93.15
Q 91.9173828125 110.9052734375 107.55 86.85
L 107.55 92.1 115.75 88.95
Q 102.8619140625 97.321875 95.35 111.95 83.5 135.95 111.9 154.4 129.25 166.15 125.8 139.1 108.85 109.55 116.25 101.55
L 121.85 109.2 121.85 78.5 125.15 84.6 129.75 84.6 126.5 95 133 87.85 136.05 71.3 136.05 81.5 141 78.95
Q 115.9 128.85 130.35 132.9
L 144.1 83.3 144.1 68.7 147.35 68.7 152.95 50.65 147.1 96.8 165 76.55 158.65 92.6 166.3 92.6 143.2 108.95
Q 135.35 127.65 134.75 148.55 143 167.4 166.3 169.45 170.1 165.3 196.2 171.45 220.3 179.7 217.3 185.65
L 222.7 187.15
Q 224.8 182 250.85 187.15 268.15 188.2 270.8 197.6
L 276.55 197.6
Q 280.75 191.5 303.7 189.45 321.4 187.35 325.7 192.4
L 330.95 188.5
Q 330.65 184.9 334.2 183.15 337.75 181.4 339.9 180.25 342.05 179.2 347.15 175.9 361 164.3 368 166.6
L 371.35 162.15
Q 366.35 155.55 379.2 139.05 389.95 120.7 397.4 122.4 410.25 100.2 410.1 80.05 406.65 66.6 397.75 72.9 393.75 77.9 390.4 75.3 387.2 71.05 397.2 69.75 400.15 65.75 390.15 60.8 388.25 56.05 393.3 55.65 398.05 54.8 397.35 60.45 403.95 68.2 413.55 69.95 415.25 63.85 419.9 59.4
L 419.9 55.4
Q 418.1 54.2 416.75 50.85 421.75 47.45 424.6 52.8
L 424.6 57
Q 428.25 60.1 431.7 56.7 441.1 56 433.5 63.95 429.05 60 424.6 61.85 416.5 62.55 415.9 77.55
L 415.9 87.85 444.35 71.85 457.1 57.1 454.65 51.55
Q 457.65 45.3 463.6 47.2 459.4 51 463.6 56.05
L 466 58.7 455.05 66.4 469.5 61.5
Q 474.45 62.35 469.5 67.3
L 451.9 70.9 420.95 90.15
Q 411.85 96.25 408.55 110 416.15 112 424.65 105.55 431.8 94.1 442.45 92.25
L 446.3 84.4
Q 448.6 82.4 450.3 84.4
L 450.3 90.7 459.9 82.3
Q 465.95 87.05 459.9 89.7
L 445.25 96.1 452.05 99.45 434.55 104.8 452.95 108.5
Q 474.05 118.3 483.6 119.95 484.25 124.15 481.35 122.9 478.35 121.7 457.1 115.85
L 468.8 130 472.85 151.3
Q 475.85 156.85 482.15 156.3 486.05 160.8 480.35 160.55 472.15 160.1 467.4 151.45
L 467.4 142
Q 459.65 144.35 459.7 150.6 453.05 152.9 453.8 148.3 456.4 143.35 463.9 139.8 466.2 129.9 459.7 125.6 438.75 106.65 426.2 113.75 434.55 123.65 434.55 126.35 434.5 129 434.95 131.05 436.3 135.8 432.5 134.7 429.35 133.8 430.4 130 432.25 127.95 430.4 124.2
L 425.35 118.3 425.35 131.9
Q 429.35 134.3 427.05 138.4 425.35 141.45 421.45 138.2 419.4 134.6 422.5 131.05 419.25 110.8 412.6 116
L 402.35 124.25
Q 411.35 132.05 396.4 150.75 384.6 170.45 375.5 167.1
L 372.4 170.7
Q 376.55 178.5 356.75 190.85 338.7 203.5 331.3 195.25
L 327.6 197.35
Q 331 205.65 305.1 208.3 273.85 215.2 275.75 202.55
L 270.8 202.55
Q 272.75 209.3 240.8 205.05 215.15 201.7 220.55 191.15
L 214.15 191.15
Q 210.95 200.95 185.55 192.65 164.1 185.65 165.55 180
L 150.95 184.15
Q 139.35 189.25 139.95 195.85 138.55 202.4 171.65 216.05 146.15 209.8 164.2 224.3 164.775 224.775 165.35 225.25
M 390.45 140.9
Q 391.25 141.7 390.9 143.2 390.45 144.7 389.1 146.1 387.75 147.45 386.25 147.8 384.75 148.25 383.95 147.45 383.15 146.65 383.55 145.1 383.95 143.6 385.3 142.25 386.65 140.9 388.2 140.45 389.65 140.1 390.45 140.9 Z
M 397.4 122.4
L 402.35 124.25
M 330.95 188.5
L 331.3 195.25
M 325.7 192.4
L 327.6 197.35
M 355.55 180
Q 356.1 181 355.3 182.35 354.5 183.7 352.9 184.7 351.2 185.65 349.7 185.65 348.1 185.65 347.5 184.65 346.95 183.65 347.75 182.3 348.5 180.95 350.15 180 351.75 179.05 353.4 179.05 355 179.05 355.55 180 Z
M 371.35 162.15
L 375.5 167.1
M 372.4 170.7
L 368 166.6
M 188.05 177.95
Q 188.05 179.05 186.65 179.85 185.3 180.65 183.4 180.65 181.5 180.65 180.15 179.85 178.8 179.05 178.8 177.95 178.8 176.8 180.15 176 181.5 175.2 183.4 175.2 185.3 175.2 186.65 176 188.05 176.8 188.05 177.95 Z
M 165.55 180
Q 169.15 173.8 166.3 169.45
M 247.55 196.55
Q 247.55 197.65 246.2 198.45 244.85 199.25 242.9 199.25 241 199.25 239.65 198.45 238.3 197.65 238.3 196.55 238.3 195.4 239.65 194.6 241 193.8 242.9 193.8 244.85 193.8 246.2 194.6 247.55 195.4 247.55 196.55 Z
M 217.3 185.65
L 214.15 191.15
M 220.55 191.15
L 222.7 187.15
M 54.225 169.3
Q 62.2638671875 170.7009765625 67.9 176.15
L 46.25 179.3
Q 34.461328125 173.4671875 35 156.85
L 37.2 129.3 32.35 135.95 29.6 124.65 28.9 169
Q 28.5859375 187.0107421875 40.35 184.7
L 28.2 191 53.8 184.5 41.75 203 36.7 209.2 61.8 185.75
Q 69.25 180.25 78.3 182.8 86.25 186.2 87.4 196.85 88.45 206.45 71.35 209.4 47 214.05 25.1 229.25
L 46.8 223.9 28.7 252.1 41.95 237.45 44.35 243.9 59.9 218.1 53.4 247.55 58.15 241.15 60.925 250.9
Q 58.2234375 240.6623046875 61.1 233.15 68.4013671875 217.2853515625 75.7 214.65 85.3828125 208.6880859375 92.55 212.6 99.723828125 216.501171875 90.2 237.15
L 70 256.8 88.2 246.85 82.85 260.95 91.05 260.95 100.25 232.75 106.7 248.95 104.25 216.35
Q 102.641015625 203.44765625 117.5 212.2 132.27421875 227.2724609375 132.65 250.85
L 134.9 236.6 153.05 256.4
Q 143 239.35 163.25 244.75 145.15 232.7 131.2 216.9 125.75 208.65 130.2 207.4 134.75 206.1 164.2 224.3
M 106.4 177.8
Q 110.95 171.2 122.3 183.7 129.4 195.65 120.4 197.95 99.7 193.2 106.4 177.8 Z
M 61.1 251.55
Q 61.0125 251.225 60.925 250.9
M 307.4 201.3
Q 307.4 202.4 306.05 203.2 304.7 204 302.8 204 300.9 204 299.55 203.2 298.2 202.4 298.2 201.3 298.2 200.15 299.55 199.35 300.9 198.55 302.8 198.55 304.7 198.55 306.05 199.35 307.4 200.15 307.4 201.3 Z
M 275.75 202.55
L 276.55 197.6
M 270.8 197.6
L 270.8 202.55"/>
</defs>

<g id="Layer_2">
<g transform="matrix( 1, 0, 0, 1, 0,0) ">
<use xlink:href="#Layer0_0_1_STROKES"/>
</g>
</g>
</svg>
